<?xml version="1.0" encoding="UTF-8"?>
<svg version="1.1" xmlns="http://www.w3.org/2000/svg" width="400" height="400">
<path d="M0 0 C132 0 264 0 400 0 C400 132 400 264 400 400 C268 400 136 400 0 400 C0 268 0 136 0 0 Z " fill="#5C64DA" transform="translate(0,0)"/>
<path d="M0 0 C0.67451202 -0.00349457 1.34902405 -0.00698914 2.04397583 -0.0105896 C15.09900616 -0.04807043 27.53574186 1.22022399 40 5.1875 C41.27568848 5.58122803 41.27568848 5.58122803 42.57714844 5.98291016 C48.41577473 7.81237623 54.16010621 9.81175804 59.75 12.3125 C60.42546875 11.61382812 61.1009375 10.91515625 61.796875 10.1953125 C63.13492188 8.83019531 63.13492188 8.83019531 64.5 7.4375 C65.82257813 6.08011719 65.82257813 6.08011719 67.171875 4.6953125 C72.05476286 0.18234039 75.61763308 -0.07595462 82.125 0.0625 C86.87820069 0.51518578 88.93428226 2.38348813 92 5.875 C94.58715764 9.478541 94.85317003 11.18866645 94.7421875 15.58203125 C94.71705078 17.16274414 94.71705078 17.16274414 94.69140625 18.77539062 C94.64736429 20.99691877 94.59536417 23.21830432 94.53515625 25.43945312 C94.52097656 26.49712891 94.50679687 27.55480469 94.4921875 28.64453125 C94.4701123 29.61108643 94.44803711 30.5776416 94.42529297 31.57348633 C94.92556247 35.7934288 97.0064103 38.41228507 99.66015625 41.625 C105.42459959 44.77321684 112.17855575 43.4510812 118.58007812 43.15625 C125.03973524 42.97223603 128.85579896 42.91176386 133.75 47.3125 C134.53375 47.9725 135.3175 48.6325 136.125 49.3125 C138.68843571 54.0449967 138.66978864 59.05753109 137.75 64.3125 C134.02549851 70.51858242 129.04021364 75.35940278 123.95117188 80.42700195 C122.37735023 81.9976545 120.81735565 83.58119983 119.2578125 85.16601562 C118.24820723 86.17789356 117.23781637 87.1889884 116.2265625 88.19921875 C115.31986816 89.10889404 114.41317383 90.01856934 113.47900391 90.95581055 C110.58488856 93.4550855 108.36509454 95.04845342 104.75 96.3125 C102.04610517 96.01905829 99.6529269 95.59209648 97.0234375 94.99609375 C84.53380916 92.95488941 71.1736559 91.89427175 60.33758545 99.60388184 C45.04489906 111.35093313 31.9529011 126.48140946 19.31065369 140.95736694 C18.61059173 141.75431016 18.61059173 141.75431016 17.8963871 142.56735325 C16.64759484 143.99386421 15.40827848 145.42865526 14.16975403 146.86408997 C9.86720136 151.21759574 6.0775446 153.89305958 -0.125 154 C-5.9301405 153.83372574 -8.79330585 152.09501213 -12.82421875 148.0390625 C-15.34355716 144.98824722 -15.55054263 142.65437798 -15.75 138.75 C-15.85828125 137.26306641 -15.85828125 137.26306641 -15.96875 135.74609375 C-13.80826233 125.42506839 -2.09440645 116.92727285 5.1875 109.75 C6.40867071 108.53888274 7.62937754 107.32729757 8.84960938 106.11523438 C11.81108978 103.17557165 14.77876176 100.24229838 17.75 97.3125 C5.76564877 92.07805653 -5.84609874 91.86931149 -18.25 96.3125 C-30.41247882 101.88473699 -38.35933466 110.97807622 -43.25 123.3125 C-47.28102478 134.99662979 -45.62278204 146.97314284 -41.25 158.3125 C-39.5667831 161.63411441 -37.62826719 164.45304851 -35.25 167.3125 C-34.67507812 168.00988281 -34.10015625 168.70726562 -33.5078125 169.42578125 C-25.64195498 178.09127989 -14.98999895 182.64206772 -3.44921875 183.52734375 C8.42350823 183.91232193 18.00822753 181.04153913 27.75 174.3125 C28.636875 173.735 29.52375 173.1575 30.4375 172.5625 C35.27528891 167.85546214 39.02055637 162.13064289 41.8125 156 C43.95244574 151.46294767 46.97459834 148.47637812 51.6875 146.5 C52.368125 146.438125 53.04875 146.37625 53.75 146.3125 C54.8225 146.18875 55.895 146.065 57 145.9375 C62.83858748 146.52135875 66.82740711 149.20966402 70.75 153.5 C73.15198476 160.25558212 72.33961301 165.62352783 69.44165039 172.06884766 C59.90791877 191.59062925 44.23931036 204.78138054 23.81201172 211.99707031 C4.25660937 218.40238701 -16.90788183 216.53161831 -35.30126953 207.56396484 C-41.24859918 204.49700586 -46.35689866 200.89345522 -51.25 196.3125 C-52.10078125 195.54035156 -52.9515625 194.76820313 -53.828125 193.97265625 C-68.33095379 180.22970622 -76.9743757 161.74297015 -77.60205078 141.73095703 C-77.80598122 121.35092986 -72.44507614 102.4748281 -58.25 87.3125 C-57.47785156 86.46171875 -56.70570313 85.6109375 -55.91015625 84.734375 C-41.35807517 69.37767648 -22.56697947 61.81520144 -1.67895508 60.859375 C5.67580471 60.70556671 12.50154947 61.61467379 19.625 63.4375 C20.36081299 63.62505859 21.09662598 63.81261719 21.85473633 64.00585938 C28.79036849 65.98241063 34.03246966 68.95373483 40.75 72.3125 C40.75 61.4225 40.75 50.5325 40.75 39.3125 C17.39845892 30.82103052 -9.30531444 28.14373734 -33.25 36.3125 C-34.50039062 36.725 -35.75078125 37.1375 -37.0390625 37.5625 C-52.29895742 42.94753512 -64.8378437 52.04101743 -76.25 63.3125 C-76.89066406 63.88097656 -77.53132813 64.44945313 -78.19140625 65.03515625 C-94.04076085 79.41357307 -105.16526094 104.54504371 -106.45458984 125.66357422 C-106.5543663 129.42418415 -106.57902333 133.17560939 -106.5625 136.9375 C-106.55926727 137.93428268 -106.55926727 137.93428268 -106.55596924 138.95120239 C-106.39839532 169.20858242 -95.07140302 195.08539228 -73.47241211 216.58227539 C-54.03742021 235.12151654 -28.24256054 244.74191217 -1.625 244.625 C-0.96047821 244.62284485 -0.29595642 244.6206897 0.38870239 244.61846924 C30.61564829 244.46105382 56.58037451 233.15501711 78.02416992 211.52392578 C95.94028401 192.68730621 106.11438854 166.8767067 106.84375 140.984375 C107.04430889 134.33250501 108.01383263 130.54580082 112.859375 125.80859375 C116.70073101 122.76884302 119.97491699 122.10224749 124.75 122.4375 C129.69387801 123.25045126 133.20018501 125.42768937 136.39453125 129.3125 C138.38422246 133.71619697 138.19615599 137.78400735 138.125 142.5625 C138.11484863 143.54323486 138.10469727 144.52396973 138.09423828 145.53442383 C137.63877939 167.23227371 131.11477345 187.37465263 120.75 206.3125 C120.19570313 207.36953125 119.64140625 208.4265625 119.0703125 209.515625 C102.61692003 239.58833277 72.18996762 261.67627345 39.75 271.3125 C3.05017605 281.80759354 -35.73285597 277.45899902 -69.25 259.3125 C-102.54908264 239.66759727 -125.26127622 208.93328651 -135.03393555 171.82250977 C-144.10892775 136.23931864 -137.84466804 97.44128385 -119.27734375 65.96875 C-100.93534352 37.67174766 -75.35848813 16.68601155 -43.25 6.3125 C-42.51265625 6.02890625 -41.7753125 5.7453125 -41.015625 5.453125 C-27.84053491 0.44863341 -13.91298152 0.02312897 0 0 Z " fill="#FDFDFE" transform="translate(200.25,61.6875)"/>
</svg>
